<svg aria-hidden="true" style="position: absolute; width: 0; height: 0; overflow: hidden;" version="1.1" xmlns="http://www.w3.org/2000/svg" xmlns:xlink="http://www.w3.org/1999/xlink">
<defs>
<symbol id="icon-header-footer-instagram" viewBox="0 0 31 32">
<path stroke-linejoin="round" stroke-linecap="round" stroke-miterlimit="4" stroke-width="1.5407" d="M20.345 1.975h-9.877c-2.727 0-4.938 2.211-4.938 4.938v9.877c0 2.727 2.211 4.938 4.938 4.938h9.877c2.727 0 4.938-2.211 4.938-4.938v-9.877c0-2.727-2.211-4.938-4.938-4.938z"></path>
<path stroke-linejoin="round" stroke-linecap="round" stroke-miterlimit="4" stroke-width="1.5407" d="M19.358 11.23c0.122 0.822-0.018 1.661-0.401 2.399s-0.988 1.336-1.73 1.709c-0.742 0.374-1.583 0.504-2.404 0.372s-1.578-0.519-2.166-1.107c-0.588-0.588-0.975-1.345-1.107-2.166s-0.002-1.662 0.372-2.404 0.972-1.348 1.709-1.73c0.738-0.383 1.577-0.523 2.399-0.401 0.838 0.124 1.615 0.515 2.214 1.114s0.99 1.376 1.114 2.214z"></path>
<path stroke-linejoin="round" stroke-linecap="round" stroke-miterlimit="4" stroke-width="1.5407" d="M20.84 6.419h0.012"></path>
</symbol>
<symbol id="icon-header-footer-facebook" viewBox="0 0 24 32">
<path stroke-linejoin="round" stroke-linecap="round" stroke-miterlimit="4" stroke-width="1.5407" d="M17.779 1.975h-2.963c-1.31 0-2.566 0.52-3.492 1.446s-1.446 2.182-1.446 3.492v2.963h-2.963v3.951h2.963v7.901h3.951v-7.901h2.963l0.988-3.951h-3.951v-2.963c0-0.262 0.104-0.513 0.289-0.698s0.436-0.289 0.698-0.289h2.963v-3.951z"></path>
</symbol>
<symbol id="icon-header-footer-twitter" viewBox="0 0 33 32">
<path stroke-linejoin="round" stroke-linecap="round" stroke-miterlimit="4" stroke-width="1.5407" d="M27.458 2.964c-0.946 0.667-1.993 1.177-3.101 1.511-0.595-0.684-1.385-1.169-2.265-1.389s-1.805-0.165-2.652 0.159-1.574 0.899-2.083 1.649c-0.509 0.75-0.776 1.638-0.763 2.545v0.988c-1.736 0.045-3.456-0.34-5.006-1.121s-2.885-1.933-3.882-3.354c0 0-3.951 8.889 4.938 12.839-2.034 1.381-4.457 2.073-6.914 1.975 8.889 4.938 19.753 0 19.753-11.358-0.001-0.275-0.027-0.55-0.079-0.82 1.008-0.994 1.719-2.249 2.054-3.625z"></path>
</symbol>
<symbol id="icon-header-modal-menu-open" viewBox="0 0 48 32">
<path stroke-linejoin="round" stroke-linecap="round" stroke-miterlimit="4" stroke-width="4" d="M3 16h42M3 2h42M3 30h28"></path>
</symbol>
<symbol id="icon-header-menu-close" viewBox="0 0 32 32">
<path stroke-linejoin="round" stroke-linecap="round" stroke-miterlimit="4" stroke-width="4" d="M30 2l-28 28M2 2l28 28"></path>
</symbol>
</defs>
</svg>
