<svg width="34" height="42" viewBox="0 0 34 42" fill="none" xmlns="http://www.w3.org/2000/svg">
<path d="M34 17.1818C34 30.5455 17 42 17 42C17 42 0 30.5455 0 17.1818C6.71846e-08 12.6249 1.79107 8.25465 4.97918 5.03244C8.1673 1.81022 12.4913 0 17 0C21.5087 0 25.8327 1.81022 29.0208 5.03244C32.2089 8.25465 34 12.6249 34 17.1818Z" fill="#121212"/>
<path d="M17.0002 22.9091C20.1298 22.9091 22.6668 20.3449 22.6668 17.1818C22.6668 14.0187 20.1298 11.4545 17.0002 11.4545C13.8705 11.4545 11.3335 14.0187 11.3335 17.1818C11.3335 20.3449 13.8705 22.9091 17.0002 22.9091Z" fill="#F7F7F7"/>
</svg>
